<svg width="1920" height="412" viewBox="0 0 1920 412" fill="none" xmlns="http://www.w3.org/2000/svg">
<g filter="url(#filter0_d)">
<g clip-path="url(#clip0)">
<path d="M1917.38 398.169L1919.96 15.2677C1919.93 1.81568 1898.8 0.0179411 1875.92 0H41.4568C18.5735 0.0179125 0.030471 10.9185 0 24.3705V64.8865C7.15069 82.1592 35.575 97.1928 66.5638 101.442C108.151 107.139 151.24 99.1729 191.867 91.4048C232.469 83.6367 275.791 75.8991 317.196 82.0526C437.368 99.8583 451.102 214.309 570.73 233.272C640.792 244.376 709.662 216.121 766.328 189.466C822.994 162.826 891.632 134.465 961.797 145.355C1013.18 153.336 1048.26 180.19 1083.08 203.783C1117.91 227.377 1163.61 250.88 1216.55 248.153C1271.97 245.305 1312.29 214.735 1366.18 206.632C1437.05 196 1507.11 227.149 1548.95 262.41C1590.77 297.671 1618.58 339.467 1672.83 368.27C1737.63 402.678 1832.36 411.284 1917.38 398.169V398.169Z" fill="#118A84"/>
<path d="M1920 0.0467529H1752.25V88.0401H1920V0.0467529Z" fill="#118A84"/>
<rect width="100" height="26" fill="#118A84"/>
</g>
</g>
<defs>
<filter id="filter0_d" x="-4" y="0" width="1928" height="412" filterUnits="userSpaceOnUse" color-interpolation-filters="sRGB">
<feFlood flood-opacity="0" result="BackgroundImageFix"/>
<feColorMatrix in="SourceAlpha" type="matrix" values="0 0 0 0 0 0 0 0 0 0 0 0 0 0 0 0 0 0 127 0"/>
<feOffset dy="4"/>
<feGaussianBlur stdDeviation="2"/>
<feColorMatrix type="matrix" values="0 0 0 0 0 0 0 0 0 0 0 0 0 0 0 0 0 0 0.25 0"/>
<feBlend mode="normal" in2="BackgroundImageFix" result="effect1_dropShadow"/>
<feBlend mode="normal" in="SourceGraphic" in2="effect1_dropShadow" result="shape"/>
</filter>
<clipPath id="clip0">
<rect width="1920" height="404" fill="white"/>
</clipPath>
</defs>
</svg>
