<?xml version="1.0" encoding="UTF-8" standalone="no"?>
<svg
   xmlns:dc="http://purl.org/dc/elements/1.1/"
   xmlns:cc="http://creativecommons.org/ns#"
   xmlns:rdf="http://www.w3.org/1999/02/22-rdf-syntax-ns#"
   xmlns:svg="http://www.w3.org/2000/svg"
   xmlns="http://www.w3.org/2000/svg"
   xmlns:sodipodi="http://sodipodi.sourceforge.net/DTD/sodipodi-0.dtd"
   xmlns:inkscape="http://www.inkscape.org/namespaces/inkscape"
   id="a2584f5a-6b33-4979-a694-f8c5f014bdeb"
   data-name="Layer 1"
   width="862.40698"
   height="316.38104"
   viewBox="0 0 862.40698 316.38104"
   version="1.1"
   sodipodi:docname="header-background.svg"
   inkscape:version="1.0 (4035a4fb49, 2020-05-01)">
  <metadata
     id="metadata2027">
    <rdf:RDF>
      <cc:Work
         rdf:about="">
        <dc:format>image/svg+xml</dc:format>
        <dc:type
           rdf:resource="http://purl.org/dc/dcmitype/StillImage" />
        <dc:title></dc:title>
      </cc:Work>
    </rdf:RDF>
  </metadata>
  <defs
     id="defs2025">
    <inkscape:perspective
       sodipodi:type="inkscape:persp3d"
       inkscape:vp_x="0 : 89.297663 : 1"
       inkscape:vp_y="0 : 999.99999 : 0"
       inkscape:vp_z="866.36023 : 89.297663 : 1"
       inkscape:persp3d-origin="433.18012 : 13.603214 : 1"
       id="perspective2608" />
  </defs>
  <sodipodi:namedview
     fit-margin-bottom="0"
     fit-margin-right="0"
     fit-margin-left="0"
     fit-margin-top="0"
     inkscape:document-rotation="0"
     pagecolor="#ffffff"
     bordercolor="#666666"
     borderopacity="1"
     objecttolerance="10"
     gridtolerance="10"
     guidetolerance="10"
     inkscape:pageopacity="0"
     inkscape:pageshadow="2"
     inkscape:window-width="1800"
     inkscape:window-height="1106"
     id="namedview2023"
     showgrid="false"
     inkscape:zoom="0.56630068"
     inkscape:cx="782.36301"
     inkscape:cy="111.00046"
     inkscape:window-x="-11"
     inkscape:window-y="49"
     inkscape:window-maximized="1"
     inkscape:current-layer="a2584f5a-6b33-4979-a694-f8c5f014bdeb" />
  <g
     id="g2628"
     transform="matrix(1.3672979,0,0,1.4013646,-315.45456,-129.56437)">
    <path
       sodipodi:nodetypes="cccccccccccccccccc"
       style="fill:#118a84;fill-opacity:1"
       id="path2018"
       fill="#cccccc"
       d="m 860.58983,314.96373 0.84781,-213.97586 c -0.01,-7.517353 -6.94937,-8.521982 -14.46672,-8.532008 H 244.33279 c -7.51738,0.01001 -13.60893,6.101557 -13.61894,13.618938 v 22.64147 c 2.34907,9.65245 11.68674,18.05363 21.86686,20.42841 13.66175,3.18347 27.81684,-1.26826 41.16313,-5.60927 13.3384,-4.34107 27.57,-8.66505 41.17186,-5.22628 39.47781,9.95034 43.98933,73.90829 83.28841,84.50554 23.016,6.20511 45.64057,-9.58434 64.25564,-24.48006 18.61549,-14.88718 41.16355,-30.73622 64.21367,-24.65029 16.879,4.4602 28.40369,19.46656 39.84355,32.65139 11.44027,13.18488 26.45486,26.31864 43.84469,24.795 18.20694,-1.59171 31.45141,-18.675 49.15586,-23.20328 23.28,-5.94125 46.296,11.46547 60.04254,31.1704 13.73822,19.70487 22.8714,43.06135 40.69513,59.15727 21.28791,19.2282 52.40724,24.03741 80.33464,16.70863 z" />
    <rect
       y="92.481987"
       x="806.34418"
       height="49.173141"
       width="55.10783"
       id="rect2624"
       style="fill:#118a84;fill-opacity:1;fill-rule:evenodd;stroke-width:20.9461;stroke-linecap:round;paint-order:stroke fill markers" />
  </g>
</svg>
