<?xml version="1.0" standalone="no"?>
<!DOCTYPE svg PUBLIC "-//W3C//DTD SVG 20010904//EN"
 "http://www.w3.org/TR/2001/REC-SVG-20010904/DTD/svg10.dtd">
<svg version="1.0" xmlns="http://www.w3.org/2000/svg"
 width="1123.000000pt" height="1123.000000pt" viewBox="0 0 1123.000000 1123.000000"
 preserveAspectRatio="xMidYMid meet">
<metadata>
Created by potrace 1.11, written by Peter Selinger 2001-2013
</metadata>
<g transform="translate(0.000000,1123.000000) scale(0.100000,-0.100000)"
fill="#000000" stroke="none">
<path d="M5388 9575 c-2 -2 -44 -6 -93 -9 -101 -7 -163 -14 -215 -22 -19 -3
-48 -7 -65 -9 -16 -2 -41 -6 -55 -9 -13 -3 -42 -8 -64 -12 -22 -3 -43 -7 -46
-9 -5 -3 -69 -15 -100 -19 -9 -1 -21 -5 -28 -10 -6 -4 -12 -5 -12 -2 0 3 -21
-1 -47 -9 -25 -8 -50 -12 -54 -9 -4 2 -10 0 -13 -5 -3 -5 -30 -14 -58 -21 -29
-6 -62 -15 -73 -20 -26 -11 -159 -53 -165 -53 -3 1 -14 -4 -25 -10 -11 -6 -22
-12 -25 -12 -11 -1 -136 -49 -145 -56 -5 -4 -41 -20 -80 -36 -105 -45 -209
-96 -217 -108 -4 -5 -8 -6 -8 -2 0 5 -13 -1 -29 -12 -16 -12 -32 -21 -34 -21
-3 0 -48 -25 -99 -56 -119 -71 -130 -77 -142 -87 -82 -58 -144 -99 -158 -104
-10 -3 -18 -9 -18 -13 0 -4 -22 -22 -50 -40 -27 -18 -50 -36 -50 -40 0 -5 -8
-11 -17 -14 -10 -4 -37 -23 -60 -44 -24 -20 -64 -55 -90 -77 -61 -52 -225
-209 -272 -260 -20 -21 -54 -58 -77 -82 -23 -23 -52 -57 -66 -75 -14 -18 -37
-45 -50 -59 -14 -15 -58 -71 -99 -125 -40 -55 -79 -105 -86 -112 -7 -7 -13
-19 -13 -27 0 -7 -4 -15 -9 -17 -10 -4 -120 -173 -171 -262 -11 -20 -30 -53
-41 -73 -28 -48 -159 -310 -159 -317 0 -3 -12 -31 -26 -63 -38 -88 -42 -96
-52 -128 -6 -16 -20 -55 -32 -85 -12 -30 -23 -62 -25 -70 -2 -8 -4 -16 -5 -17
-2 -2 -3 -6 -5 -10 -1 -5 -4 -15 -8 -23 -3 -8 -9 -28 -13 -45 -4 -16 -8 -34
-10 -40 -1 -5 -9 -29 -17 -52 -9 -22 -13 -44 -10 -47 4 -3 1 -6 -6 -6 -7 0
-10 -4 -7 -9 3 -4 1 -23 -5 -42 -5 -19 -12 -42 -14 -52 -2 -10 -7 -28 -11 -39
-3 -11 -7 -30 -9 -41 -1 -12 -6 -33 -9 -47 -4 -14 -9 -38 -11 -55 -2 -16 -4
-30 -5 -30 -3 0 -16 -75 -26 -150 -1 -11 -3 -20 -4 -20 -2 0 -8 -51 -14 -115
-2 -19 -4 -35 -5 -35 -4 0 -14 -146 -15 -207 -1 -32 -3 -58 -6 -58 -8 0 -5
-364 3 -377 4 -6 3 -14 -3 -18 -6 -4 -7 -11 -4 -17 4 -5 8 -31 10 -57 9 -138
16 -217 19 -221 1 -3 6 -32 9 -65 7 -59 14 -110 23 -150 2 -11 6 -33 9 -50 3
-16 12 -61 20 -100 9 -38 16 -78 17 -87 1 -10 5 -18 10 -18 4 0 6 -3 3 -8 -7
-12 98 -379 115 -396 5 -6 9 -18 9 -28 0 -11 8 -33 17 -51 9 -18 17 -36 18
-42 1 -5 6 -21 12 -35 6 -14 18 -43 27 -65 9 -22 25 -58 34 -80 39 -94 173
-349 237 -453 39 -63 75 -124 82 -135 7 -12 20 -27 29 -34 10 -7 15 -13 11
-13 -7 0 20 -49 33 -60 3 -3 17 -21 30 -40 13 -19 30 -41 37 -48 7 -7 13 -16
13 -20 0 -4 15 -24 33 -44 17 -20 39 -45 47 -56 153 -199 440 -483 639 -632
18 -14 51 -40 73 -58 22 -17 43 -32 47 -32 3 0 17 -10 31 -23 14 -13 41 -32
60 -43 19 -10 43 -26 53 -35 58 -52 514 -299 551 -299 9 0 16 -4 16 -9 0 -5
10 -13 23 -16 12 -4 56 -20 97 -37 96 -39 290 -108 290 -103 0 2 20 -4 45 -15
25 -11 45 -18 45 -15 0 2 15 -1 33 -6 33 -11 177 -47 212 -55 111 -22 170 -33
220 -40 22 -2 50 -7 62 -10 12 -2 51 -7 85 -10 35 -2 70 -7 78 -10 20 -7 249
-17 380 -17 147 1 394 16 460 28 19 4 51 8 70 10 19 2 44 6 55 8 11 3 40 8 65
12 91 15 121 21 250 51 58 14 112 28 120 31 21 9 21 9 63 17 20 5 40 12 43 17
3 5 9 7 14 4 5 -3 17 -1 27 4 19 10 105 41 126 45 6 2 26 8 42 15 17 7 59 24
95 38 134 51 362 164 507 249 113 66 262 162 280 180 7 7 28 22 48 34 19 12
35 26 35 31 0 6 5 7 10 4 6 -3 13 1 16 9 3 9 10 16 16 16 8 0 69 47 124 95 6
6 35 30 64 55 28 25 69 61 89 80 21 19 51 47 67 61 37 33 187 192 239 254 22
26 49 57 60 70 11 13 29 34 40 47 11 13 64 84 118 158 53 74 102 140 107 147
6 7 10 17 10 23 0 5 5 10 11 10 5 0 8 4 5 9 -4 5 -2 11 3 13 21 8 249 421 243
440 -1 5 2 8 8 8 5 0 10 9 10 20 0 11 5 20 10 20 6 0 10 5 10 11 0 6 6 25 14
42 55 127 79 184 81 197 2 8 15 43 29 78 13 34 25 65 24 68 0 3 5 17 11 32 13
33 84 287 100 357 22 98 61 305 66 350 2 17 4 30 5 30 3 0 21 188 25 262 1 34
5 65 7 70 12 21 -1 540 -16 653 -2 19 -7 62 -11 95 -4 33 -8 71 -11 85 -2 14
-7 41 -9 60 -3 19 -8 46 -11 60 -3 13 -7 38 -10 55 -7 49 -9 59 -16 70 -3 6
-9 31 -12 58 -4 26 -10 57 -15 70 -5 12 -9 25 -10 30 0 4 -1 8 -2 10 0 1 -3
13 -5 27 -9 48 -91 314 -113 365 -5 11 -28 70 -51 130 -49 127 -185 411 -242
502 -21 35 -38 68 -38 73 0 6 -4 10 -10 10 -5 0 -10 4 -10 9 0 9 -118 201
-130 211 -3 3 -22 28 -41 55 -18 28 -36 52 -39 55 -3 3 -27 34 -55 70 -27 36
-57 72 -65 82 -8 9 -26 31 -40 48 -71 90 -325 350 -342 350 -5 0 -6 5 -3 10 3
6 2 10 -4 10 -6 0 -21 10 -34 23 -39 37 -101 90 -143 122 -51 39 -62 47 -82
66 -30 27 -161 119 -171 119 -5 0 -11 7 -15 15 -3 8 -12 15 -20 15 -8 0 -16 3
-18 8 -1 4 -34 27 -73 50 -38 24 -77 47 -85 52 -56 35 -177 103 -186 104 -7 1
-18 7 -25 13 -27 20 -313 149 -345 155 -11 2 -21 5 -24 8 -7 7 -105 46 -175
69 -83 27 -318 94 -340 96 -5 1 -23 4 -40 8 -16 4 -40 10 -52 12 -13 3 -33 7
-45 10 -13 3 -41 8 -63 11 -22 3 -47 8 -55 11 -8 3 -31 7 -50 8 -19 2 -55 7
-80 10 -25 4 -63 8 -85 10 -22 2 -62 6 -90 10 -48 6 -521 15 -527 10z"/>
</g>
</svg>
